PathFileType	4	(X/Y/Z)	C:/Users/beibeiliu/ov580/test_trc/User1\sequence.25_training_dense_right.trc
DataRate	CameraRate	NumFrames	NumMarkers	Units	OrigDataRate	OrigDataStartFrame	OrigNumFrames
120	120	8	19	mm	120	122	242
Frame#	Time	ThumbCMC			ThumbMCP			ThumbIP			ThumbTip			IndexMCP			IndexPIP			IndexTip			MiddleMCP			MiddlePIP			MiddleTip			RingMCP			RingPIP			RingTip			PinkyMCP			PinkyPIP			PinkyTip			BackHand1			BackHand2			BackHand3	
		X0	Y0	Z0	X1	Y1	Z1	X2	Y2	Z2	X3	Y3	Z3	X4	Y4	Z4	X5	Y5	Z5	X6	Y6	Z6	X7	Y7	Z7	X8	Y8	Z8	X9	Y9	Z9	X10	Y10	Z10	X11	Y11	Z11	X12	Y12	Z12	X13	Y13	Z13	X14	Y14	Z14	X15	Y15	Z15	X16	Y16	Z16	X17	Y17	Z17	X18	Y18	Z18	
121	1.00833	156.299	13.1895	50.8297	137.36	-7.59732	25.3714	145.698	-23.1118	-4.59754	156.108	-43.0315	-18.9132	170.011	4.20251	-32.5828	165.528	-6.66035	-59.5763	169.07	-21.6267	-81.5315	181.185	-21.0375	-35.5102	159.245	-47.2875	-43.8109	139.718	-67.4687	-12.1227	185.431	-45.6765	-13.485	163.682	-59.8662	10.88	164.029	-39.3765	37.0298	199.48	-53.5602	2.46918	177.857	-59.4253	19.5977	175.691	-37.81	46.0238	216.401	-0.72559	16.7538	223.938	7.22529	52.001	194.611	22.8689	31.8343	
122	1.01667	155.608	16.009	48.7386	135.481	-4.06409	21.7091	142.189	-19.8428	-4.25221	156.546	-39.5343	-18.7263	167.901	6.56151	-36.8277	165.596	-4.34791	-61.2658	165.022	-16.3168	-79.6489	177.996	-18.9227	-37.064	156.359	-46.2746	-43.1783	133.313	-59.6658	-12.2902	179.457	-46.6779	-14.56	156.367	-57.7469	8.51241	162.111	-39.299	36.866	190.38	-53.1741	1.13998	172.409	-58.8032	17.8417	174.944	-37.3066	46.035	217.595	-4.80082	15.1093	224.786	3.65606	54.5549	193.492	26.5963	34.5448	
123	1.025	156.127	17.2012	50.2301	135.293	-0.351609	17.6704	140.362	-15.5923	-3.70463	148.648	-40.1394	-23.2509	168.469	8.51238	-37.0183	165.095	-1.13758	-59.6692	165.738	-18.6016	-85.3569	176.003	-20.6038	-39.0064	149.183	-43.9097	-44.1455	128.554	-54.5426	-15.0365	173.293	-46.4869	-16.6433	150.51	-54.8441	6.43428	157.336	-39.5076	33.8294	190.618	-56.3644	-0.0867676	167.064	-59.3356	22.4573	169.038	-37.4824	45.4845	216.853	-8.70289	16.401	223.535	1.94488	52.8732	194.33	23.3502	33.5413	
124	1.03333	158.566	16.495	47.1758	136.892	3.4846	19.5333	138.496	-13.3346	-7.50102	148.178	-35.402	-21.9863	169.549	7.48643	-39.9087	166.056	-2.55466	-61.4655	163.846	-15.1979	-84.4565	171.288	-18.7942	-42.7881	150.169	-41.3496	-48.4048	123.603	-55.0034	-19.9973	171.297	-46.9806	-15.7885	146.513	-55.5445	5.26994	152.048	-35.9011	33.5901	182.051	-59.811	0.423393	161.275	-58.5987	21.2812	164.881	-36.559	41.5104	212.059	-11.6206	15.8395	219.311	-0.172716	53.0577	194.295	22.4952	31.9678	
125	1.04167	158.69	18.4262	47.3462	136.307	6.51341	15.1125	137.957	-9.22688	-8.31538	145.813	-32.3294	-26.6251	170.567	8.02775	-37.449	165.577	-0.260942	-60.4878	164.43	-15.357	-86.7105	174.21	-21.2588	-41.4052	142.885	-37.6615	-53.1469	116.427	-54.5438	-28.799	165.171	-44.0613	-17.6451	140.73	-52.9015	6.5159	146.303	-35.9507	30.8961	178.443	-55.5554	-0.669984	155.332	-57.6924	14.7487	159.292	-36.6852	39.002	213.907	-16.8296	15.3057	218.586	-8.22687	51.3723	195.452	18.8175	30.3119	
126	1.05	159.304	18.0823	44.2507	137.554	9.35264	14.9757	137.05	-5.30687	-12.4359	141.605	-27.9241	-26.4108	170.714	8.64545	-39.3557	167.804	-4.29891	-64.0965	167.583	-17.4973	-85.884	171.386	-23.8775	-44.1768	144.09	-38.5625	-55.5262	114.189	-54.2071	-43.4718	161.045	-47.9846	-18.0913	135.505	-49.4034	1.84159	144.239	-35.5627	32.6134	173.112	-59.5692	-1.23478	149.106	-58.6729	17.3295	155.473	-34.0645	38.5544	209.498	-18.4507	14.8119	218.09	-14.0706	51.9865	198.334	16.5285	28.2708	
127	1.05833	160.223	20.9074	41.705	141.037	10.7028	11.1625	136.347	-3.25474	-12.4433	139.154	-26.6379	-29.6611	173.358	2.98679	-41.4293	167.356	-1.43759	-66.4696	166.401	-14.4632	-90.0439	168.647	-22.1127	-43.8594	141.922	-38.0938	-57.2487	109.262	-50.5986	-57.1396	156.899	-43.2408	-19.7969	128.97	-45.8535	3.42325	138.79	-33.9149	30.0534	162.137	-61.7842	-2.27759	142.315	-52.4832	17.976	152.227	-32.24	39.7986	206.208	-25.8741	14.5571	211.933	-15.4593	54.5272	198.043	10.1984	31.3824	
128	1.06667	158.918	24.4696	41.6199	138.449	14.9011	12.0173	136.556	-1.72496	-14.6395	136.46	-27.1337	-33.7158	173.292	4.60088	-43.6861	168.613	-4.65344	-62.7942	166.248	-15.6484	-87.1507	167.751	-23.4729	-41.3462	140.34	-33.4699	-59.5059	108.354	-46.533	-65.3496	151.615	-42.7238	-21.3559	124.357	-40.9191	0.168223	135.701	-26.5947	28.711	156.787	-61.7203	-1.35247	136.787	-49.89	13.0216	147.975	-29.684	33.3641	202.024	-29.3209	14.1725	211.471	-21.5684	52.1895	197.474	8.19347	31.3043	
